<svg xmlns="http://www.w3.org/2000/svg" xmlns:xlink="http://www.w3.org/1999/xlink" contentStyleType="text/css" data-diagram-type="CLASS" height="383px" preserveAspectRatio="none" style="width:548px;height:383px;background:#FFFFFF;" version="1.1" viewBox="0 0 548 383" width="548px" zoomAndPan="magnify"><defs/><g><g class="entity" data-entity="Main" data-source-line="45" data-uid="ent0002" id="entity_Main"><rect fill="#F1F1F1" height="36.4883" rx="2.5" ry="2.5" style="stroke:#181818;stroke-width:0.5;" width="46.5254" x="136.46" y="7"/><text fill="#000000" font-family="sans-serif" font-size="14" lengthAdjust="spacing" textLength="32.5254" x="143.46" y="22.5352">Main</text><line style="stroke:#181818;stroke-width:0.5;" x1="137.46" x2="181.9854" y1="27.4883" y2="27.4883"/></g><!--class ItemLoader--><g class="entity" data-entity="ItemLoader" data-source-line="48" data-uid="ent0003" id="entity_ItemLoader"><rect fill="#F1F1F1" height="64.4883" rx="2.5" ry="2.5" style="stroke:#181818;stroke-width:0.5;" width="265.4355" x="7" y="120.98"/><ellipse cx="97.3301" cy="136.98" fill="#ADD1B2" rx="11" ry="11" style="stroke:#181818;stroke-width:1;"/><path d="M99.8032,143.1231 Q99.2222,143.4219 98.583,143.5713 Q97.9438,143.7207 97.2383,143.7207 Q94.7314,143.7207 93.4116,142.0689 Q92.0918,140.417 92.0918,137.2959 Q92.0918,134.1665 93.4116,132.5147 Q94.7314,130.8628 97.2383,130.8628 Q97.9438,130.8628 98.5913,131.0122 Q99.2388,131.1616 99.8032,131.4605 L99.8032,134.1831 Q99.1724,133.6021 98.5789,133.3323 Q97.9854,133.0625 97.3545,133.0625 Q96.0098,133.0625 95.325,134.1292 Q94.6401,135.1958 94.6401,137.2959 Q94.6401,139.3877 95.325,140.4544 Q96.0098,141.521 97.3545,141.521 Q97.9854,141.521 98.5789,141.2512 Q99.1724,140.9815 99.8032,140.4004 Z " fill="#000000"/><text fill="#000000" font-family="sans-serif" font-size="14" lengthAdjust="spacing" textLength="76.2754" x="117.8301" y="142.271">ItemLoader</text><line style="stroke:#181818;stroke-width:0.5;" x1="8" x2="271.4355" y1="152.98" y2="152.98"/><line style="stroke:#181818;stroke-width:0.5;" x1="8" x2="271.4355" y1="160.98" y2="160.98"/><text fill="#000000" font-family="sans-serif" font-size="14" lengthAdjust="spacing" textLength="253.4355" x="13" y="178.5152">ArrayList&lt;Item&gt; loadFile(String path)</text></g><!--class TodoList--><g class="entity" data-entity="TodoList" data-source-line="51" data-uid="ent0004" id="entity_TodoList"><rect fill="#F1F1F1" height="97.4648" rx="2.5" ry="2.5" style="stroke:#181818;stroke-width:0.5;" width="234.0176" x="307.71" y="104.49"/><ellipse cx="391.0948" cy="120.49" fill="#ADD1B2" rx="11" ry="11" style="stroke:#181818;stroke-width:1;"/><path d="M393.5679,126.6331 Q392.9869,126.9319 392.3477,127.0813 Q391.7085,127.2307 391.003,127.2307 Q388.4961,127.2307 387.1763,125.5789 Q385.8565,123.927 385.8565,120.8059 Q385.8565,117.6765 387.1763,116.0247 Q388.4961,114.3728 391.003,114.3728 Q391.7085,114.3728 392.356,114.5222 Q393.0035,114.6716 393.5679,114.9705 L393.5679,117.6931 Q392.9371,117.1121 392.3435,116.8423 Q391.75,116.5725 391.1192,116.5725 Q389.7745,116.5725 389.0896,117.6392 Q388.4048,118.7058 388.4048,120.8059 Q388.4048,122.8977 389.0896,123.9644 Q389.7745,125.031 391.1192,125.031 Q391.75,125.031 392.3435,124.7612 Q392.9371,124.4915 393.5679,123.9104 Z " fill="#000000"/><text fill="#000000" font-family="sans-serif" font-size="14" lengthAdjust="spacing" textLength="58.748" x="411.5948" y="125.781">TodoList</text><line style="stroke:#181818;stroke-width:0.5;" x1="308.71" x2="540.7276" y1="136.49" y2="136.49"/><text fill="#000000" font-family="sans-serif" font-size="14" lengthAdjust="spacing" textLength="154.1641" x="313.71" y="154.0252">ArrayList&lt;Item&gt; items</text><line style="stroke:#181818;stroke-width:0.5;" x1="308.71" x2="540.7276" y1="160.9783" y2="160.9783"/><text fill="#000000" font-family="sans-serif" font-size="14" lengthAdjust="spacing" textLength="222.0176" x="313.71" y="178.5134">TodoList(ArrayList&lt;Item&gt; items)</text><text fill="#000000" font-family="sans-serif" font-size="14" lengthAdjust="spacing" textLength="127.415" x="313.71" y="195.0017">void displayItems()</text></g><!--class Item--><g class="entity" data-entity="Item" data-source-line="56" data-uid="ent0005" id="entity_Item"><rect fill="#F1F1F1" height="97.4648" rx="2.5" ry="2.5" style="stroke:#181818;stroke-width:0.5;" width="141.3223" x="354.06" y="278.96"/><ellipse cx="405.4013" cy="294.96" fill="#ADD1B2" rx="11" ry="11" style="stroke:#181818;stroke-width:1;"/><path d="M407.8745,301.1031 Q407.2934,301.4019 406.6542,301.5513 Q406.0151,301.7007 405.3095,301.7007 Q402.8027,301.7007 401.4829,300.0489 Q400.163,298.397 400.163,295.2759 Q400.163,292.1465 401.4829,290.4947 Q402.8027,288.8428 405.3095,288.8428 Q406.0151,288.8428 406.6625,288.9922 Q407.31,289.1416 407.8745,289.4405 L407.8745,292.1631 Q407.2436,291.5821 406.6501,291.3123 Q406.0566,291.0425 405.4257,291.0425 Q404.081,291.0425 403.3962,292.1092 Q402.7114,293.1758 402.7114,295.2759 Q402.7114,297.3677 403.3962,298.4344 Q404.081,299.501 405.4257,299.501 Q406.0566,299.501 406.6501,299.2312 Q407.2436,298.9615 407.8745,298.3804 Z " fill="#000000"/><text fill="#000000" font-family="sans-serif" font-size="14" lengthAdjust="spacing" textLength="30.1396" x="425.9013" y="300.251">Item</text><line style="stroke:#181818;stroke-width:0.5;" x1="355.06" x2="494.3823" y1="310.96" y2="310.96"/><text fill="#000000" font-family="sans-serif" font-size="14" lengthAdjust="spacing" textLength="93.7959" x="360.06" y="328.4952">... description</text><text fill="#000000" font-family="sans-serif" font-size="14" lengthAdjust="spacing" textLength="64.4766" x="360.06" y="344.9834">... isDone</text><line style="stroke:#181818;stroke-width:0.5;" x1="355.06" x2="494.3823" y1="351.9366" y2="351.9366"/><text fill="#000000" font-family="sans-serif" font-size="14" lengthAdjust="spacing" textLength="129.3223" x="360.06" y="369.4717">void markAsDone()</text></g><!--reverse link TodoList to Item--><g class="link" data-entity-1="TodoList" data-entity-2="Item" data-source-line="61" data-uid="lnk6" id="link_TodoList_Item"><path codeLine="61" d="M424.72,214.26 C424.72,238.08 424.72,254.78 424.72,278.61" fill="none" id="TodoList-backto-Item" style="stroke:#181818;stroke-width:1;"/><polygon fill="#181818" points="424.72,202.26,420.72,208.26,424.72,214.26,428.72,208.26,424.72,202.26" style="stroke:#181818;stroke-width:1;"/><text fill="#000000" font-family="sans-serif" font-size="13" lengthAdjust="spacing" textLength="23.3594" x="425.72" y="245.5284">Has</text></g><!--reverse link Main to ItemLoader--><g class="link" data-entity-1="Main" data-entity-2="ItemLoader" data-source-line="62" data-uid="lnk7" id="link_Main_ItemLoader"><path codeLine="62" d="M155.0562,55.6112 C151.8962,75.4912 148.57,96.45 144.71,120.79" fill="none" id="Main-backto-ItemLoader" style="stroke:#181818;stroke-width:1;"/><polygon fill="#181818" points="156.94,43.76,152.0477,49.0577,155.0562,55.6112,159.9485,50.3135,156.94,43.76" style="stroke:#181818;stroke-width:1;"/></g><!--reverse link Main to TodoList--><g class="link" data-entity-1="Main" data-entity-2="TodoList" data-source-line="63" data-uid="lnk8" id="link_Main_TodoList"><path codeLine="63" d="M194.0686,42.5802 C225.4886,57.5102 272.29,79.76 323.37,104.05" fill="none" id="Main-backto-TodoList" style="stroke:#181818;stroke-width:1;"/><polygon fill="#181818" points="183.23,37.43,186.9326,43.618,194.0686,42.5802,190.366,36.3922,183.23,37.43" style="stroke:#181818;stroke-width:1;"/></g><!--SRC=[ROzD2i8m48NtSufPja9x016X8A9GLtg1iGaw6fEI2K8ftjqcfHNHpS1xRxxvSUURRW8UY6qFy8B6a0ZkWtxKZfJsFLJUKrUpX5LqrsW6Vyj6PyVWsLwmfN3DP_Bab8lDlnmFLM3Aixzn3a_72XLBQwYBWMJvrrKzb6M9IalZkGtiRD8i6sVr23_8twka4pejn4LHf0bBt950V7YsnbS_tiIy0G00]--></g></svg>