<svg xmlns="http://www.w3.org/2000/svg" xmlns:xlink="http://www.w3.org/1999/xlink" contentStyleType="text/css" data-diagram-type="CLASS" height="366px" preserveAspectRatio="none" style="width:559px;height:366px;background:#FFFFFF;" version="1.1" viewBox="0 0 559 366" width="559px" zoomAndPan="magnify"><defs/><g><g class="entity" data-entity="Main" data-source-line="34" data-uid="ent0002" id="entity_Main"><rect fill="#F1F1F1" height="36.4883" rx="2.5" ry="2.5" style="stroke:#181818;stroke-width:0.5;" width="46.5254" x="241.57" y="7"/><text fill="#000000" font-family="sans-serif" font-size="14" lengthAdjust="spacing" textLength="32.5254" x="248.57" y="22.5352">Main</text><line style="stroke:#181818;stroke-width:0.5;" x1="242.57" x2="287.0954" y1="27.4883" y2="27.4883"/></g><!--class Employee--><g class="entity" data-entity="Employee" data-source-line="37" data-uid="ent0003" id="entity_Employee"><rect fill="#F1F1F1" height="64.4883" rx="2.5" ry="2.5" style="stroke:#181818;stroke-width:0.5;" width="134.8213" x="197.42" y="104.49"/><ellipse cx="229.426" cy="120.49" fill="#A9DCDF" rx="11" ry="11" style="stroke:#181818;stroke-width:1;"/><path d="M229.2892,115.8381 L228.1354,120.9099 L230.4513,120.9099 Z M227.7951,113.5969 L230.7917,113.5969 L234.1369,125.99 L231.6882,125.99 L230.9245,122.927 L227.6457,122.927 L226.8986,125.99 L224.4499,125.99 Z " fill="#000000"/><text fill="#000000" font-family="sans-serif" font-size="14" font-style="italic" lengthAdjust="spacing" textLength="65.0303" x="247.2051" y="125.781">Employee</text><line style="stroke:#181818;stroke-width:0.5;" x1="198.42" x2="331.2413" y1="136.49" y2="136.49"/><line style="stroke:#181818;stroke-width:0.5;" x1="198.42" x2="331.2413" y1="144.49" y2="144.49"/><ellipse cx="208.42" cy="158.2341" fill="#84BE84" rx="3" ry="3" style="stroke:#038048;stroke-width:1;"/><text fill="#000000" font-family="sans-serif" font-size="14" font-style="italic" lengthAdjust="spacing" textLength="108.8213" x="217.42" y="162.0252">calculateSalary()</text></g><!--class MonthlyEmployee--><g class="entity" data-entity="MonthlyEmployee" data-source-line="40" data-uid="ent0004" id="entity_MonthlyEmployee"><rect fill="#F1F1F1" height="80.9766" rx="2.5" ry="2.5" style="stroke:#181818;stroke-width:0.5;" width="151.6631" x="7" y="262.47"/><ellipse cx="22" cy="278.47" fill="#ADD1B2" rx="11" ry="11" style="stroke:#181818;stroke-width:1;"/><path d="M24.4731,284.6131 Q23.8921,284.9119 23.2529,285.0613 Q22.6138,285.2107 21.9082,285.2107 Q19.4014,285.2107 18.0815,283.5589 Q16.7617,281.907 16.7617,278.7859 Q16.7617,275.6565 18.0815,274.0047 Q19.4014,272.3528 21.9082,272.3528 Q22.6138,272.3528 23.2612,272.5022 Q23.9087,272.6516 24.4731,272.9505 L24.4731,275.6731 Q23.8423,275.0921 23.2488,274.8223 Q22.6553,274.5525 22.0244,274.5525 Q20.6797,274.5525 19.9949,275.6192 Q19.3101,276.6858 19.3101,278.7859 Q19.3101,280.8777 19.9949,281.9444 Q20.6797,283.011 22.0244,283.011 Q22.6553,283.011 23.2488,282.7412 Q23.8423,282.4715 24.4731,281.8904 Z " fill="#000000"/><text fill="#000000" font-family="sans-serif" font-size="14" lengthAdjust="spacing" textLength="119.6631" x="36" y="283.761">MonthlyEmployee</text><line style="stroke:#181818;stroke-width:0.5;" x1="8" x2="157.6631" y1="294.47" y2="294.47"/><rect fill="none" height="6" style="stroke:#C82930;stroke-width:1;" width="6" x="15" y="305.2141"/><text fill="#000000" font-family="sans-serif" font-size="14" lengthAdjust="spacing" textLength="39.6895" x="27" y="312.0052">salary</text><line style="stroke:#181818;stroke-width:0.5;" x1="8" x2="157.6631" y1="318.9583" y2="318.9583"/><ellipse cx="18" cy="332.7024" fill="#84BE84" rx="3" ry="3" style="stroke:#038048;stroke-width:1;"/><text fill="#000000" font-family="sans-serif" font-size="14" lengthAdjust="spacing" textLength="108.8213" x="27" y="336.4934">calculateSalary()</text></g><!--class HourlyEmployee--><g class="entity" data-entity="HourlyEmployee" data-source-line="46" data-uid="ent0005" id="entity_HourlyEmployee"><rect fill="#F1F1F1" height="97.4648" rx="2.5" ry="2.5" style="stroke:#181818;stroke-width:0.5;" width="141.6963" x="193.98" y="254.22"/><ellipse cx="208.98" cy="270.22" fill="#ADD1B2" rx="11" ry="11" style="stroke:#181818;stroke-width:1;"/><path d="M211.4531,276.3631 Q210.8721,276.6619 210.2329,276.8113 Q209.5938,276.9607 208.8882,276.9607 Q206.3814,276.9607 205.0615,275.3089 Q203.7417,273.657 203.7417,270.5359 Q203.7417,267.4065 205.0615,265.7547 Q206.3814,264.1028 208.8882,264.1028 Q209.5938,264.1028 210.2412,264.2522 Q210.8887,264.4016 211.4531,264.7005 L211.4531,267.4231 Q210.8223,266.8421 210.2288,266.5723 Q209.6353,266.3025 209.0044,266.3025 Q207.6597,266.3025 206.9749,267.3692 Q206.2901,268.4358 206.2901,270.5359 Q206.2901,272.6277 206.9749,273.6944 Q207.6597,274.761 209.0044,274.761 Q209.6353,274.761 210.2288,274.4912 Q210.8223,274.2215 211.4531,273.6404 Z " fill="#000000"/><text fill="#000000" font-family="sans-serif" font-size="14" lengthAdjust="spacing" textLength="109.6963" x="222.98" y="275.511">HourlyEmployee</text><line style="stroke:#181818;stroke-width:0.5;" x1="194.98" x2="334.6763" y1="286.22" y2="286.22"/><rect fill="none" height="6" style="stroke:#C82930;stroke-width:1;" width="6" x="201.98" y="296.9641"/><text fill="#000000" font-family="sans-serif" font-size="14" lengthAdjust="spacing" textLength="109.252" x="213.98" y="303.7552">numberOfHours</text><rect fill="none" height="6" style="stroke:#C82930;stroke-width:1;" width="6" x="201.98" y="313.4524"/><text fill="#000000" font-family="sans-serif" font-size="14" lengthAdjust="spacing" textLength="70.6289" x="213.98" y="320.2434">payPrHour</text><line style="stroke:#181818;stroke-width:0.5;" x1="194.98" x2="334.6763" y1="327.1966" y2="327.1966"/><ellipse cx="204.98" cy="340.9407" fill="#84BE84" rx="3" ry="3" style="stroke:#038048;stroke-width:1;"/><text fill="#000000" font-family="sans-serif" font-size="14" lengthAdjust="spacing" textLength="108.8213" x="213.98" y="344.7317">calculateSalary()</text></g><!--class CommissionEmployee--><g class="entity" data-entity="CommissionEmployee" data-source-line="51" data-uid="ent0006" id="entity_CommissionEmployee"><rect fill="#F1F1F1" height="113.9531" rx="2.5" ry="2.5" style="stroke:#181818;stroke-width:0.5;" width="181.9893" x="370.84" y="245.98"/><ellipse cx="386.2346" cy="261.98" fill="#ADD1B2" rx="11" ry="11" style="stroke:#181818;stroke-width:1;"/><path d="M388.7078,268.1231 Q388.1267,268.4219 387.4876,268.5713 Q386.8484,268.7207 386.1428,268.7207 Q383.636,268.7207 382.3162,267.0689 Q380.9963,265.417 380.9963,262.2959 Q380.9963,259.1665 382.3162,257.5147 Q383.636,255.8628 386.1428,255.8628 Q386.8484,255.8628 387.4959,256.0122 Q388.1433,256.1616 388.7078,256.4605 L388.7078,259.1831 Q388.0769,258.6021 387.4834,258.3323 Q386.8899,258.0625 386.259,258.0625 Q384.9143,258.0625 384.2295,259.1292 Q383.5447,260.1958 383.5447,262.2959 Q383.5447,264.3877 384.2295,265.4544 Q384.9143,266.521 386.259,266.521 Q386.8899,266.521 387.4834,266.2512 Q388.0769,265.9815 388.7078,265.4004 Z " fill="#000000"/><text fill="#000000" font-family="sans-serif" font-size="14" lengthAdjust="spacing" textLength="149.1123" x="400.3223" y="267.271">CommissionEmployee</text><line style="stroke:#181818;stroke-width:0.5;" x1="371.84" x2="551.8293" y1="277.98" y2="277.98"/><rect fill="none" height="6" style="stroke:#C82930;stroke-width:1;" width="6" x="378.84" y="288.7241"/><text fill="#000000" font-family="sans-serif" font-size="14" lengthAdjust="spacing" textLength="71.5723" x="390.84" y="295.5152">baseSalary</text><rect fill="none" height="6" style="stroke:#C82930;stroke-width:1;" width="6" x="378.84" y="305.2124"/><text fill="#000000" font-family="sans-serif" font-size="14" lengthAdjust="spacing" textLength="87.7939" x="390.84" y="312.0034">salesAmount</text><rect fill="none" height="6" style="stroke:#C82930;stroke-width:1;" width="6" x="378.84" y="321.7007"/><text fill="#000000" font-family="sans-serif" font-size="14" lengthAdjust="spacing" textLength="155.9893" x="390.84" y="328.4917">commissionPercentage</text><line style="stroke:#181818;stroke-width:0.5;" x1="371.84" x2="551.8293" y1="335.4448" y2="335.4448"/><ellipse cx="381.84" cy="349.189" fill="#84BE84" rx="3" ry="3" style="stroke:#038048;stroke-width:1;"/><text fill="#000000" font-family="sans-serif" font-size="14" lengthAdjust="spacing" textLength="108.8213" x="390.84" y="352.98">calculateSalary()</text></g><!--reverse link Main to Employee--><g class="link" data-entity-1="Main" data-entity-2="Employee" data-source-line="57" data-uid="lnk7" id="link_Main_Employee"><path codeLine="57" d="M264.83,55.84 C264.83,72.04 264.83,84.46 264.83,104.05" fill="none" id="Main-backto-Employee" style="stroke:#181818;stroke-width:1;"/><polygon fill="#181818" points="264.83,43.84,260.83,49.84,264.83,55.84,268.83,49.84,264.83,43.84" style="stroke:#181818;stroke-width:1;"/></g><!--reverse link Employee to MonthlyEmployee--><g class="link" data-entity-1="Employee" data-entity-2="MonthlyEmployee" data-source-line="58" data-uid="lnk8" id="link_Employee_MonthlyEmployee"><path codeLine="58" d="M216.3752,181.4575 C187.0352,207.9275 158.41,233.76 126.83,262.25" fill="none" id="Employee-backto-MonthlyEmployee" style="stroke:#181818;stroke-width:1;"/><polygon fill="none" points="229.74,169.4,212.3561,177.0025,220.3944,185.9124,229.74,169.4" style="stroke:#181818;stroke-width:1;"/><text fill="#000000" font-family="sans-serif" font-size="13" lengthAdjust="spacing" textLength="10.3721" x="196.49" y="212.5484">Is</text></g><!--reverse link Employee to HourlyEmployee--><g class="link" data-entity-1="Employee" data-entity-2="HourlyEmployee" data-source-line="59" data-uid="lnk9" id="link_Employee_HourlyEmployee"><path codeLine="59" d="M264.83,187.4 C264.83,211.35 264.83,226.65 264.83,253.89" fill="none" id="Employee-backto-HourlyEmployee" style="stroke:#181818;stroke-width:1;"/><polygon fill="none" points="264.83,169.4,258.83,187.4,270.83,187.4,264.83,169.4" style="stroke:#181818;stroke-width:1;"/><text fill="#000000" font-family="sans-serif" font-size="13" lengthAdjust="spacing" textLength="10.3721" x="265.83" y="212.5484">Is</text></g><!--reverse link Employee to CommissionEmployee--><g class="link" data-entity-1="Employee" data-entity-2="CommissionEmployee" data-source-line="60" data-uid="lnk10" id="link_Employee_CommissionEmployee"><path codeLine="60" d="M316.6449,180.927 C342.5749,202.547 363.84,220.26 394.45,245.78" fill="none" id="Employee-backto-CommissionEmployee" style="stroke:#181818;stroke-width:1;"/><polygon fill="none" points="302.82,169.4,312.8026,185.5353,320.4873,176.3187,302.82,169.4" style="stroke:#181818;stroke-width:1;"/><text fill="#000000" font-family="sans-serif" font-size="13" lengthAdjust="spacing" textLength="10.3721" x="358.42" y="212.5484">Is</text></g><!--SRC=[TP193i8m34NtEKMM3Ce541k4a621gCG9tCX0KOOgJXTHwTr9wG0jxIvstlkoRTCdIi_Fa9cIiOf1Ijv1x4W5HFoWSsK3OidMN8AIXGAFLr3Wmc9PTd0LnOO_M-CVAdmrmUb3J_dHOgrtj8KRQgRGARhBhVwXMESG4bSNCqbDpjvgdH5brlnafK0joKIS1ccdRM4y4xAd4tGIZOSxpiJN1-8h8VgBiEx1jw_O7Ys-uISQ4SCL9u3_sMle3G00]--></g></svg>